# Blender v2.90.0 OBJ File: ''
# www.blender.org
mtllib Axis.mtl
o Cube_Cube.001
v 1.000000 1.000000 -1.000000
v 1.000000 -1.000000 -1.000000
v 1.000000 1.000000 1.000000
v 1.000000 -1.000000 1.000000
v -1.000000 1.000000 -1.000000
v -1.000000 -1.000000 -1.000000
v -1.000000 1.000000 1.000000
v -1.000000 -1.000000 1.000000
v 10.000000 0.000000 0.000000
v 10.000000 0.000000 0.000000
v 10.000000 0.000000 0.000000
v 10.000000 0.000000 0.000000
v 0.000000 10.000000 0.000000
v 0.000000 10.000000 0.000000
v 0.000000 10.000000 0.000000
v 0.000000 10.000000 0.000000
v -1.000000 -1.000000 1.000000
v -1.000000 1.000000 1.000000
v 1.000000 1.000000 1.000000
v 1.000000 -1.000000 1.000000
v 1.000000 -1.000000 -1.000000
v -1.000000 -1.000000 -1.000000
v 1.000000 1.000000 -1.000000
v -1.000000 1.000000 -1.000000
v 0.000000 0.000000 -10.000000
v 0.000000 0.000000 -10.000000
v 0.000000 0.000000 -10.000000
v 0.000000 0.000000 -10.000000
vt 0.375000 0.750000
vt 0.625000 0.750000
vt 0.625000 0.750000
vt 0.375000 0.750000
vt 0.375000 0.000000
vt 0.625000 0.000000
vt 0.625000 0.250000
vt 0.375000 0.250000
vt 0.125000 0.500000
vt 0.375000 0.500000
vt 0.125000 0.750000
vt 0.625000 0.250000
vt 0.375000 0.250000
vt 0.375000 0.500000
vt 0.625000 0.500000
vt 0.625000 0.750000
vt 0.375000 0.750000
vt 0.625000 0.500000
vt 0.875000 0.500000
vt 0.875000 0.750000
vt 0.625000 0.750000
vt 0.125000 0.500000
vt 0.375000 0.500000
vt 0.375000 0.000000
vt 0.625000 0.000000
vt 0.125000 0.750000
vt 0.625000 1.000000
vt 0.625000 1.000000
vt 0.625000 0.500000
vt 0.625000 0.500000
vt 0.375000 0.250000
vt 0.625000 0.250000
vt 0.625000 0.500000
vt 0.375000 0.500000
vt 0.625000 0.000000
vt 0.625000 0.250000
vt 0.625000 1.000000
vt 0.125000 0.500000
vn -0.1464 -0.3535 -0.9239
vn 0.3535 -0.1464 -0.9239
vn -0.3535 -0.1464 -0.9239
vn -0.1464 0.3535 -0.9239
vn -1.0000 0.0000 0.0000
vn 0.0000 -1.0000 0.0000
vn 0.3535 0.1464 -0.9239
vn 0.1464 -0.3535 -0.9239
vn 0.1464 0.3535 -0.9239
vn -0.3535 0.1464 -0.9239
vn 0.0000 0.0000 1.0000
vn -0.9939 0.1104 0.0000
vn 0.9939 0.1104 0.0000
vn 0.0000 0.1104 -0.9939
vn 0.0000 0.1104 0.9939
vn -0.9939 0.0000 -0.1104
vn 0.0000 0.9939 -0.1104
vn 0.9939 0.0000 -0.1104
vn 0.0000 -0.9939 -0.1104
vn 0.1104 0.0000 0.9939
vn 0.1104 0.0000 -0.9939
vn 0.1104 -0.9939 0.0000
vn 0.1104 0.9939 0.0000
usemtl Material.001
s 1
f 4/1/1 3/2/2 19/3/3 20/4/4
f 8/5/5 7/6/5 5/7/5 6/8/5
f 6/9/6 2/10/6 4/1/6 8/11/6
f 6/8/7 5/7/8 24/12/9 22/13/10
f 10/14/11 9/15/11 11/16/11 12/17/11
f 15/18/11 16/19/11 14/20/11 13/21/11
f 2/10/4 6/9/7 22/22/10 21/23/1
f 7/6/9 8/5/10 17/24/7 18/25/8
f 8/11/10 4/1/1 20/4/4 17/26/7
f 3/2/2 7/27/9 18/28/8 19/3/3
f 1/29/3 2/10/4 21/23/1 23/30/2
f 17/26/11 20/4/11 19/3/11 18/28/11
f 28/31/11 27/32/11 25/33/11 26/34/11
usemtl Blue
f 5/7/12 7/6/12 14/35/12 16/36/12
f 3/2/13 1/29/13 15/18/13 13/21/13
f 1/29/14 5/7/14 16/36/14 15/18/14
f 7/27/15 3/2/15 13/21/15 14/37/15
f 5/7/8 1/29/3 23/30/2 24/12/9
usemtl Green
f 22/13/16 24/12/16 27/32/16 28/31/16
f 24/12/17 23/30/17 25/33/17 27/32/17
f 23/30/18 21/23/18 26/34/18 25/33/18
f 21/23/19 22/22/19 28/38/19 26/34/19
usemtl Red
f 3/2/20 4/1/20 12/17/20 11/16/20
f 2/10/21 1/29/21 9/15/21 10/14/21
f 4/1/22 2/10/22 10/14/22 12/17/22
f 1/29/23 3/2/23 11/16/23 9/15/23
